<svg width="10" height="16" viewBox="0 0 10 16" fill="none" xmlns="http://www.w3.org/2000/svg">
<path d="M8.5 0H1.5C0.672848 0 0 0.672848 0 1.5V14.5C0 15.3272 0.672848 16 1.5 16H8.5C9.32715 16 10 15.3272 10 14.5V1.5C10 0.672848 9.32715 0 8.5 0ZM1.5 1H8.5C8.77588 1 9 1.22412 9 1.5V12H1V1.5C1 1.22412 1.22412 1 1.5 1ZM8.5 15H1.5C1.22412 15 1 14.7759 1 14.5V13H9V14.5C9 14.7759 8.77588 15 8.5 15Z" fill="#757575"/>
<path d="M2.35355 13.7388C2.54882 13.9212 2.54882 14.2168 2.35355 14.3991C2.15828 14.5815 1.84172 14.5815 1.64645 14.3991C1.45118 14.2168 1.45118 13.9212 1.64645 13.7388C1.84172 13.5565 2.15828 13.5565 2.35355 13.7388Z" fill="#757575"/>
</svg>
